G04 PROTEUS GERBER X2 FILE*
%TF.GenerationSoftware,Labcenter,Proteus,8.9-SP0-Build27865*%
%TF.CreationDate,2019-11-20T08:52:41+00:00*%
%TF.FileFunction,Plated,0,2,PTH*%
%TF.FilePolarity,Positive*%
%TF.Part,Single*%
%TF.SameCoordinates,{f691470e-80e8-4d2b-9628-1e6ddb3d0262}*%
%FSLAX45Y45*%
%MOMM*%
G01*
%TA.AperFunction,ComponentDrill*%
%ADD13C,1.016000*%
%ADD14C,1.270000*%
%TD.AperFunction*%
D13*
X-940000Y-2230000D03*
X-940000Y-2484000D03*
X+60000Y-2230000D03*
X+60000Y-2484000D03*
D14*
X+1040000Y-2190000D03*
X+1040000Y-2444000D03*
X+2060000Y-2230000D03*
X+2060000Y-2484000D03*
X+3060000Y-2230000D03*
X+3060000Y-2484000D03*
X+4060000Y-2230000D03*
X+4060000Y-2484000D03*
X+5060000Y-2230000D03*
X+5060000Y-2484000D03*
X+6060000Y-2230000D03*
X+6060000Y-2484000D03*
X+6980000Y-2230000D03*
X+6980000Y-2484000D03*
X+7980000Y-2230000D03*
X+7980000Y-2484000D03*
X+60000Y-3084000D03*
X+60000Y-4100000D03*
X+1060000Y-3080000D03*
X+1060000Y-4096000D03*
X+2060000Y-3080000D03*
X+2060000Y-4096000D03*
X+3060000Y-3080000D03*
X+3060000Y-4096000D03*
X+4060000Y-3080000D03*
X+4060000Y-4096000D03*
X+5060000Y-3080000D03*
X+5060000Y-4096000D03*
X+6060000Y-3080000D03*
X+6060000Y-4096000D03*
X+6980000Y-3080000D03*
X+6980000Y-4096000D03*
X+7980000Y-3080000D03*
X+7980000Y-4096000D03*
X-940000Y-4096000D03*
X-940000Y-3080000D03*
X+60000Y-1340000D03*
X+1050000Y-1340000D03*
X+2060000Y-1370000D03*
X+3060000Y-1370000D03*
X+4060000Y-1370000D03*
X+5060000Y-1370000D03*
X+6060000Y-1370000D03*
X+6980000Y-1340000D03*
X+7980000Y-1350000D03*
X-940000Y-1350000D03*
X+8820000Y-4086000D03*
M02*
