G04 PROTEUS GERBER X2 FILE*
%TF.GenerationSoftware,Labcenter,Proteus,8.9-SP0-Build27865*%
%TF.CreationDate,2019-11-20T08:52:41+00:00*%
%TF.FileFunction,Copper,L2,Bot*%
%TF.FilePolarity,Positive*%
%TF.Part,Single*%
%TF.SameCoordinates,{f691470e-80e8-4d2b-9628-1e6ddb3d0262}*%
%FSLAX45Y45*%
%MOMM*%
G01*
%TA.AperFunction,Conductor*%
%ADD10C,1.270000*%
%TA.AperFunction,ComponentPad*%
%ADD11R,2.032000X2.032000*%
%ADD12R,2.286000X2.286000*%
%TD.AperFunction*%
D10*
X+60000Y-2484000D02*
X+60000Y-3084000D01*
X+1040000Y-2444000D02*
X+1060000Y-2464000D01*
X+1060000Y-3080000D01*
X+2060000Y-2484000D02*
X+2060000Y-3080000D01*
X+3060000Y-2484000D02*
X+3060000Y-3080000D01*
X+4060000Y-2484000D02*
X+4060000Y-3080000D01*
X+5060000Y-2484000D02*
X+5060000Y-3080000D01*
X+6060000Y-2484000D02*
X+6060000Y-3080000D01*
X+6980000Y-2484000D02*
X+6980000Y-3080000D01*
X+7980000Y-2484000D02*
X+7980000Y-3080000D01*
X+60000Y-2230000D02*
X+60000Y-1340000D01*
X+1040000Y-2190000D02*
X+1040000Y-1752600D01*
X+1050000Y-1742600D01*
X+1050000Y-1340000D01*
X+2060000Y-2230000D02*
X+2060000Y-1370000D01*
X+3060000Y-2230000D02*
X+3060000Y-1370000D01*
X+4060000Y-2230000D02*
X+4060000Y-1370000D01*
X+5060000Y-2230000D02*
X+5060000Y-1370000D01*
X+6060000Y-2230000D02*
X+6060000Y-1370000D01*
X+6980000Y-2230000D02*
X+6980000Y-1340000D01*
X+7980000Y-2230000D02*
X+7980000Y-1350000D01*
X-940000Y-2230000D02*
X-940000Y-1350000D01*
X-940000Y-2484000D02*
X-940000Y-3080000D01*
X+7980000Y-4096000D02*
X+8458200Y-4096000D01*
X+8468200Y-4086000D01*
X+8820000Y-4086000D01*
X+60000Y-4100000D02*
X+533400Y-4100000D01*
X+537400Y-4096000D01*
X+1060000Y-4096000D01*
X+60000Y-4100000D02*
X-381000Y-4100000D01*
X-385000Y-4096000D01*
X-940000Y-4096000D01*
X+6980000Y-4096000D02*
X+7980000Y-4096000D01*
X+5060000Y-4096000D02*
X+6060000Y-4096000D01*
X+4060000Y-4096000D02*
X+5060000Y-4096000D01*
X+3060000Y-4096000D02*
X+4060000Y-4096000D01*
X+2060000Y-4096000D02*
X+3060000Y-4096000D01*
X+1060000Y-4096000D02*
X+2060000Y-4096000D01*
X+6060000Y-4096000D02*
X+6980000Y-4096000D01*
D11*
X-940000Y-2230000D03*
X-940000Y-2484000D03*
X+60000Y-2230000D03*
X+60000Y-2484000D03*
D12*
X+1040000Y-2190000D03*
X+1040000Y-2444000D03*
X+2060000Y-2230000D03*
X+2060000Y-2484000D03*
X+3060000Y-2230000D03*
X+3060000Y-2484000D03*
X+4060000Y-2230000D03*
X+4060000Y-2484000D03*
X+5060000Y-2230000D03*
X+5060000Y-2484000D03*
X+6060000Y-2230000D03*
X+6060000Y-2484000D03*
X+6980000Y-2230000D03*
X+6980000Y-2484000D03*
X+7980000Y-2230000D03*
X+7980000Y-2484000D03*
X+60000Y-3084000D03*
X+60000Y-4100000D03*
X+1060000Y-3080000D03*
X+1060000Y-4096000D03*
X+2060000Y-3080000D03*
X+2060000Y-4096000D03*
X+3060000Y-3080000D03*
X+3060000Y-4096000D03*
X+4060000Y-3080000D03*
X+4060000Y-4096000D03*
X+5060000Y-3080000D03*
X+5060000Y-4096000D03*
X+6060000Y-3080000D03*
X+6060000Y-4096000D03*
X+6980000Y-3080000D03*
X+6980000Y-4096000D03*
X+7980000Y-3080000D03*
X+7980000Y-4096000D03*
X-940000Y-4096000D03*
X-940000Y-3080000D03*
X+60000Y-1340000D03*
X+1050000Y-1340000D03*
X+2060000Y-1370000D03*
X+3060000Y-1370000D03*
X+4060000Y-1370000D03*
X+5060000Y-1370000D03*
X+6060000Y-1370000D03*
X+6980000Y-1340000D03*
X+7980000Y-1350000D03*
X-940000Y-1350000D03*
X+8820000Y-4086000D03*
M02*
