G04 PROTEUS GERBER X2 FILE*
%TF.GenerationSoftware,Labcenter,Proteus,8.9-SP0-Build27865*%
%TF.CreationDate,2019-11-20T08:51:27+00:00*%
%TF.FileFunction,Copper,L2,Bot*%
%TF.FilePolarity,Positive*%
%TF.Part,Single*%
%TF.SameCoordinates,{c1e29a52-7f13-45e4-b634-42eaecaf8b59}*%
%FSLAX45Y45*%
%MOMM*%
G01*
%TA.AperFunction,Conductor*%
%ADD10C,1.016000*%
%TA.AperFunction,ViaPad*%
%ADD11C,0.762000*%
%TA.AperFunction,ComponentPad*%
%ADD12R,2.286000X2.286000*%
%TA.AperFunction,ComponentPad*%
%ADD13R,2.032000X2.032000*%
%TD.AperFunction*%
D10*
X-10000000Y+3476000D02*
X-9677400Y+3476000D01*
X-9488000Y+3665400D01*
X-9488000Y+6000000D01*
X-9238000Y+4238000D02*
X-8153400Y+4238000D01*
X-8001000Y+4390400D01*
X-8001000Y+7543800D01*
X-8153400Y+7696200D01*
X-9296400Y+7696200D01*
X-9488000Y+7887800D01*
X-9488000Y+8250000D01*
X-10000000Y+5000000D02*
X-9742000Y+5258000D01*
X-9742000Y+6000000D01*
X-9238000Y+3984000D02*
X-8001000Y+3984000D01*
X-7848600Y+4136400D01*
X-7848600Y+8077200D01*
X-8021400Y+8250000D01*
X-9234000Y+8250000D01*
X-10000000Y+4746000D02*
X-10210800Y+4746000D01*
X-10210800Y+5257800D01*
X-9996000Y+5472600D01*
X-9996000Y+6000000D01*
X-9238000Y+3730000D02*
X-7848600Y+3730000D01*
X-7696200Y+3882400D01*
X-7696200Y+8458200D01*
X-7848600Y+8610600D01*
X-10591800Y+8610600D01*
X-10744200Y+8458200D01*
X-10744200Y+7239000D01*
X-10591800Y+7086600D01*
X-9492000Y+7086600D01*
X-9492000Y+6750000D01*
X-10000000Y+6750000D02*
X-10000000Y+6934200D01*
X-10820400Y+6934200D01*
X-10972800Y+6781800D01*
X-10972800Y+2057400D01*
X-10820400Y+1905000D01*
X-8991600Y+1905000D01*
X-8839200Y+2057400D01*
X-8839200Y+3276600D01*
X-9038600Y+3476000D01*
X-9238000Y+3476000D01*
X-10254000Y+6750000D02*
X-10820400Y+6183600D01*
X-10820400Y+2209800D01*
X-10668000Y+2057400D01*
X-9238000Y+2057400D01*
X-9238000Y+3222000D01*
X-9996000Y+8250000D02*
X-9996000Y+8458200D01*
X-10439400Y+8458200D01*
X-10439400Y+7391400D01*
X-10287000Y+7239000D01*
X-9144000Y+7239000D01*
X-8991600Y+7086600D01*
X-8991600Y+5410200D01*
X-8839200Y+5257800D01*
X-8305800Y+5257800D01*
X-8305800Y+4746001D01*
X-9238000Y+4746000D01*
X-9238000Y+4746001D01*
X-9238000Y+4492001D02*
X-9238000Y+4492000D01*
X-8305800Y+4492001D01*
X-8153400Y+4644401D01*
X-8153400Y+5410200D01*
X-8686800Y+5410200D01*
X-8839200Y+5562600D01*
X-8839200Y+7239000D01*
X-8991600Y+7391400D01*
X-10058400Y+7391400D01*
X-10250000Y+7583000D01*
X-10250000Y+8250000D01*
X-10000000Y+3222000D02*
X-9496000Y+2718000D01*
X-9496000Y+2250000D01*
X-10000000Y+4238000D02*
X-10000000Y+4492000D01*
X-10000000Y+4238000D02*
X-10000000Y+3984000D01*
X-9238000Y+5000000D02*
X-9238000Y+6096000D01*
X-9390400Y+6248400D01*
X-10363200Y+6248400D01*
X-10650000Y+5961600D01*
X-10650000Y+3150000D01*
X-9750000Y+2250000D01*
X-10000000Y+3730000D02*
X-10210800Y+3730000D01*
X-10480000Y+3999200D01*
X-10480000Y+5369600D01*
X-10250000Y+5599600D01*
X-10250000Y+6000000D01*
X-9238000Y+5000000D02*
X-8880000Y+5000000D01*
X-10000000Y+4492000D02*
X-10270000Y+4492000D01*
X-10290115Y+4492000D01*
X-10290689Y+4492574D01*
X-9742000Y+8250000D02*
X-9742000Y+7696200D01*
X-9589600Y+7543800D01*
X-8706800Y+7543800D01*
X-8520000Y+7357000D01*
X-8520000Y+6016000D01*
X-8880000Y+5000000D02*
X-8520000Y+5000000D01*
D11*
X-8880000Y+5000000D03*
X-10270000Y+4492000D03*
D12*
X-10000000Y+5000000D03*
X-10000000Y+4746000D03*
X-10000000Y+4492000D03*
X-10000000Y+4238000D03*
X-10000000Y+3984000D03*
X-10000000Y+3730000D03*
X-10000000Y+3476000D03*
X-10000000Y+3222000D03*
X-9238000Y+3222000D03*
X-9238000Y+3476000D03*
X-9238000Y+3730000D03*
X-9238000Y+3984000D03*
X-9238000Y+4238000D03*
X-9238000Y+4492000D03*
X-9238000Y+4746000D03*
X-9238000Y+5000000D03*
D13*
X-10250000Y+6000000D03*
X-9996000Y+6000000D03*
X-9742000Y+6000000D03*
X-9488000Y+6000000D03*
X-8520000Y+5000000D03*
X-8520000Y+6016000D03*
X-9750000Y+2250000D03*
X-9496000Y+2250000D03*
X-10250000Y+8250000D03*
X-9996000Y+8250000D03*
X-9742000Y+8250000D03*
X-9488000Y+8250000D03*
X-9234000Y+8250000D03*
X-10254000Y+6750000D03*
X-10000000Y+6750000D03*
X-9746000Y+6750000D03*
X-9492000Y+6750000D03*
X-9238000Y+6750000D03*
M02*
